<svg id="visual" viewBox="0 0 900 600" width="900" height="600" xmlns="http://www.w3.org/2000/svg" xmlns:xlink="http://www.w3.org/1999/xlink" version="1.1"><rect x="0" y="0" width="900" height="600" fill="#ffffff"></rect><path d="M0 115L30 125.3C60 135.7 120 156.3 180 165.5C240 174.7 300 172.3 360 161.5C420 150.7 480 131.3 540 133.8C600 136.3 660 160.7 720 163.8C780 167 840 149 870 140L900 131L900 0L870 0C840 0 780 0 720 0C660 0 600 0 540 0C480 0 420 0 360 0C300 0 240 0 180 0C120 0 60 0 30 0L0 0Z" fill="#2eff00" stroke-linecap="round" stroke-linejoin="miter"></path></svg>